<svg xmlns="http://www.w3.org/2000/svg" version="1.1" xmlns:xlink="http://www.w3.org/1999/xlink" viewBox="0 0 10.161711520351725 3.0793801781620465"><g transform="matrix(0.7361998841196921,0,0,0.7361998841196921,3.437031994589604,1.1929399436606483)"><g transform="matrix(1,0,0,1,0,0)" clip-path="url(#SvgjsClipPath25765)"><g clip-path="url(#SvgjsClipPath2576317178f08-735c-4326-a818-d988663cbd01)"><path d=" M -1.4092331574656276 0.26870241269586814 C -1.4197925183515485 0.2676451713710726 -1.4302866174272968 0.26885033946559256 -1.4408329259511832 0.26963783197500835 C -1.4599198300329856 0.27106489022411484 -1.4788849120691328 0.27301839374194703 -1.4978151878065211 0.275885562602195 C -1.5676061676050614 0.2864753789995297 -1.6365226391472891 0.30629756614260994 -1.701118778856093 0.3347430138031582 C -1.770326753150425 0.3652202791537458 -1.8375681715648904 0.40280238023845294 -1.8991187601323078 0.446845400530244 C -1.922056111014292 0.4632609211823163 -1.9440058331689976 0.48136454732418577 -1.9658206809160133 0.49922452937474404 C -1.9844115952405044 0.5144392327196411 -2.003198294995513 0.5289621608767091 -2.0208711931902434 0.5452950165692293 C -2.033536335151066 0.5570029853141875 -2.045270408620093 0.5696333209762511 -2.0569044139801886 0.5823071645117631 C -2.0661802925993826 0.592409692726476 -2.076391590497716 0.6016638174089456 -2.085510840772496 0.6119969373529347 C -2.103675377937193 0.6325761614940167 -2.1204650663009215 0.6540690509775146 -2.13725475466465 0.6757620766788749 C -2.151921258804097 0.6947097555656426 -2.16738395702765 0.7128568895809603 -2.1809105548827503 0.7326834275113855 C -2.197874274740272 0.7575525279744771 -2.212749616672272 0.7842402575477109 -2.2256497011497154 0.8114196260909116 C -2.2292347499218614 0.8189769437088946 -2.2328372018433873 0.8266430310104985 -2.2358609990480494 0.8344483435071371 C -2.237740539181019 0.8392951206092861 -2.2391240895566775 0.8452295945476448 -2.2416997556648215 0.8496369421279649 C -2.2426003686452027 0.8441984579469181 -2.2447975162543456 0.8391384922648722 -2.246154961905935 0.8338174793421357 C -2.252150346867121 0.8103058245306333 -2.2606691884883134 0.7875642590791668 -2.2665862592772923 0.7640264995435956 C -2.2781245473158016 0.7181430962049383 -2.2848856708496794 0.6704236606067592 -2.290707024317072 0.6235047698800303 C -2.298777734841746 0.5584213419886047 -2.2974202891901565 0.4928941337880054 -2.2909898254944867 0.42773674251171734 C -2.286639038149649 0.3836719682832018 -2.281017820900119 0.33950277515841054 -2.2699624702568864 0.29653004855344944 C -2.256714322791856 0.24502977875260668 -2.2388282360172287 0.19508274003387083 -2.217835687078387 0.1462712568121376 C -2.1964994259393036 0.09667228108098891 -2.168384638116963 0.05082803482843512 -2.138529535356687 0.005975768090504041 C -2.131315929938946 -0.0048576923981416 -2.1234627587815145 -0.015042885572406406 -2.115548676601255 -0.025354251579671527 C -2.1105931298154847 -0.0318064692120657 -2.1053721850016798 -0.039424697852876334 -2.097510312269558 -0.042496353718331714 C -2.0891089419066766 -0.0457768473763393 -2.081564676650728 -0.036822927020663476 -2.0757868310567837 -0.031863029447548596 C -2.058696938366262 -0.017200876095445794 -2.0423597318863966 -0.0017555810212723788 -2.024129932911527 0.011536074317206602 C -1.9849206373598505 0.040125097960134526 -1.944258178834998 0.06715653973361058 -1.900350032950897 0.08810558079900366 C -1.8673275570035794 0.10385978177466071 -1.8322602110041883 0.1156243107551016 -1.7972102681541766 0.12596178148643566 C -1.7151718219799186 0.15015650991107765 -1.626098152669058 0.15167493469442606 -1.5421236061263475 0.1389880387968795 C -1.5141436927116967 0.1347634242850423 -1.4865727533074609 0.1269320070643345 -1.4590757772880871 0.12037537053566427 C -1.444739932986847 0.11696000246996674 -1.429555685153364 0.11207406828171418 -1.41572888297147 0.11998815046197364 C -1.396837764320185 0.13079985701389518 -1.3985215190226372 0.14896004339124724 -1.3998006505020195 0.16771628763484225 C -1.4021109185821283 0.201695936798024 -1.4035858354920283 0.23505342337089397 -1.4092331574656276 0.26870241269586814 Z" fill="#b9dea4" transform="matrix(1,0,0,1,0,0)" fill-rule="evenodd"></path></g><g clip-path="url(#SvgjsClipPath2576317178f08-735c-4326-a818-d988663cbd01)"><path d=" M -2.2416997556648215 0.8496369421279649 C -2.2391240895566775 0.8452295945476448 -2.237740539181019 0.8392951206092861 -2.2358609990480494 0.8344483435071371 C -2.2328372018433873 0.8266430310104985 -2.2292347499218614 0.8189769437088946 -2.2256497011497154 0.8114196260909116 C -2.212749616672272 0.7842402575477109 -2.197874274740272 0.7575525279744771 -2.1809105548827503 0.7326834275113855 C -2.16738395702765 0.7128568895809603 -2.151921258804097 0.6947097555656426 -2.13725475466465 0.6757620766788749 C -2.1204650663009215 0.6540690509775146 -2.103675377937193 0.6325761614940167 -2.085510840772496 0.6119969373529347 C -2.076391590497716 0.6016638174089456 -2.0661802925993826 0.592409692726476 -2.0569044139801886 0.5823071645117631 C -2.045270408620093 0.5696333209762511 -2.033536335151066 0.5570029853141875 -2.0208711931902434 0.5452950165692293 C -2.003198294995513 0.5289621608767091 -1.9844115952405044 0.5144392327196411 -1.9658206809160133 0.49922452937474404 C -1.9440058331689976 0.48136454732418577 -1.922056111014292 0.4632609211823163 -1.8991187601323078 0.446845400530244 C -1.8375681715648904 0.40280238023845294 -1.770326753150425 0.3652202791537458 -1.701118778856093 0.3347430138031582 C -1.6365226391472891 0.30629756614260994 -1.5676061676050614 0.2864753789995297 -1.4978151878065211 0.275885562602195 C -1.4788849120691328 0.27301839374194703 -1.4599198300329856 0.27106489022411484 -1.4408329259511832 0.26963783197500835 C -1.4302866174272968 0.26885033946559256 -1.4197925183515485 0.2676451713710726 -1.4092331574656276 0.26870241269586814 C -1.4130531487543947 0.28822874629949935 -1.4152676995129174 0.3081771062755797 -1.419936094333928 0.3275642146841762 C -1.4251135312742849 0.34904405180563935 -1.4325707807833363 0.3700844594052741 -1.4397104228162148 0.3909682386604947 C -1.4553602048955958 0.43672546916615174 -1.4739076113466385 0.4818039768460143 -1.4971843236415199 0.5242937660556982 C -1.527478855923624 0.5796096763579638 -1.5652741455882284 0.6334028110895359 -1.60930846430533 0.6786422979011574 C -1.665651160420977 0.7365251727368768 -1.7357771508450694 0.7831873670102604 -1.8086354357217203 0.8174280634141325 C -1.8449253529650107 0.8344831498058957 -1.8817069091782679 0.8495586279557582 -1.9206508067019092 0.8595654388488846 C -1.982009960626154 0.875332692186576 -2.0441043976116764 0.8832728790909047 -2.107425756628443 0.8829857271261455 C -2.1246244190025863 0.8829074129539384 -2.1423451758581096 0.8844910995474592 -2.1594437701233216 0.8824157739839716 C -2.176181249038912 0.8803839562939325 -2.193214581493951 0.8811148885678654 -2.2100042698576794 0.8790917724525159 C -2.220759416174118 0.8777952378237542 -2.231070782181383 0.8765074047696823 -2.2380276911457786 0.8670400915073154 C -2.2422087977841674 0.8613405600855782 -2.2397114458482306 0.8556453794511859 -2.2416997556648215 0.8496369421279649 Z" fill="#69b79e" transform="matrix(1,0,0,1,0,0)" fill-rule="evenodd"></path></g><g clip-path="url(#SvgjsClipPath2576317178f08-735c-4326-a818-d988663cbd01)"><path d=" M -2.180941010394164 0.9774326188078802 C -2.1807147694522326 0.9768104562175685 -2.180492879297646 0.9761882936272569 -2.180266638355714 0.9755617802496003 C -2.176046374631222 0.9720289409255919 -2.1664354853864753 0.9737300987774232 -2.1612885039575325 0.9740172507421828 C -2.144951297477667 0.974926565297254 -2.128670651233285 0.9764014822071537 -2.112294287667316 0.9767712991314649 C -2.0542634860618723 0.9780852369096057 -1.9950231655745634 0.9752093664746683 -1.9379756419090526 0.9641453142567461 C -1.7754432790679542 0.9326108075813634 -1.6234441723887072 0.8456124638339905 -1.5156142588342518 0.7198137985453555 C -1.4824917147780032 0.6811701053485081 -1.4512182553433104 0.6403727724159659 -1.4249046934817327 0.5967474277092789 C -1.4139972696082248 0.5786525031420994 -1.4046691815408927 0.5596178085084348 -1.395258428514009 0.5407223390698052 C -1.373043308331268 0.49613547035990935 -1.3538432837785 0.4507959154393566 -1.3393638634948806 0.40307212905383283 C -1.3287174868620628 0.3679786783303727 -1.3175925236213128 0.3316844102997373 -1.3126804847089915 0.2952552678614121 C -1.308773477673327 0.26627902414479354 -1.3039354021458678 0.2374071993244511 -1.3012379139920685 0.20828737962545307 C -1.2995411069275815 0.18994446017961764 -1.299776049444203 0.17136659821716105 -1.2978834569491986 0.15308023900680856 C -1.296312822717712 0.13793079747208392 -1.288276918491797 0.11825218631138346 -1.272070235632277 0.11369691196133846 C -1.2646347400599496 0.1116085340358165 -1.256637992920138 0.11359249306506236 -1.2493939319909835 0.11544157768661845 C -1.241149189972516 0.11754735876151978 -1.23287834322998 0.1195356685781106 -1.2246553551482366 0.12172846539990867 C -1.1940867232634076 0.1298861916714793 -1.1630351539833017 0.1371694096867374 -1.1316485740776432 0.14134616553778145 C -1.0970728670482188 0.1459492985486197 -1.0617923324689302 0.1461668379158615 -1.027029541583678 0.14472672730472036 C -0.9738411662930382 0.14252087812088765 -0.9224105090897128 0.13451107861904155 -0.8715237003044922 0.11841751623048735 C -0.8162948057491233 0.10095345582830906 -0.763102079671139 0.07484003018459373 -0.7152216649412011 0.04227003612113944 C -0.7000026108089592 0.03191951302777085 -0.6858233948521333 0.02017238719670922 -0.6713831316546173 0.008799429077303689 C -0.6555419149320634 -0.003678629027690561 -0.6405621541037878 -0.017653357979309003 -0.6260044196479608 -0.03159328063216865 C -0.6192432961140835 -0.038062901413942196 -0.6136438328012774 -0.046303292645064664 -0.6033672730927708 -0.04314027024536765 C -0.5943611432889571 -0.04036881870670617 -0.5888356433610131 -0.030305447578096667 -0.5833101434330692 -0.023335486251666815 C -0.5685000633112423 -0.004657556180279077 -0.5551605493119702 0.01492533765883508 -0.5420516270419742 0.03483018976146712 C -0.5296214275977733 0.053708256050717496 -0.516769201781123 0.07236443218538113 -0.5058791810569947 0.09219532090315097 C -0.46844500674201184 0.16038086017144604 -0.442557822040228 0.23439210369447872 -0.4239712585030817 0.30975209129441095 C -0.41723623969327295 0.3370445803085773 -0.41204575039088187 0.3643109645986746 -0.40714241305324994 0.39196456896246235 C -0.40498877331755523 0.40413372116597324 -0.4011165725806496 0.41823027216324704 -0.41116254055988 0.42791512479285565 C -0.41316825352585007 0.42894626139358216 -0.41587009246699425 0.42806305156258007 -0.41802808299003336 0.4277758995978208 C -0.4231707136316316 0.42709282598468135 -0.4284134123821608 0.4265707315033007 -0.4335734461731382 0.4261095480447481 C -0.45038488847359104 0.4245954740487444 -0.4674530272273889 0.4239036988609154 -0.48433408212535856 0.42361654689615613 C -0.5374658971805155 0.42271593391577467 -0.5914200110438468 0.42762362204075155 -0.643390165877932 0.438887810476536 C -0.7315153635476177 0.45798776692037324 -0.8148851506493959 0.4915497404984507 -0.8923248146001608 0.5374331438371079 C -0.9084662356495083 0.5469918236337162 -0.9250775417320982 0.5561067231211508 -0.9404184179099955 0.5669358328224517 C -1.004227065109384 0.6119882357782455 -1.0615704423143437 0.6647806894205047 -1.1115914444179418 0.7247475913944016 C -1.128972839860568 0.745579161201484 -1.1461889053840906 0.7666761290366017 -1.161229577235194 0.7893002232297571 C -1.1889266894724302 0.8309459596945427 -1.2130909623856585 0.8750150847104031 -1.23220397119153 0.921255252611337 C -1.2402833832908935 0.9408033401516923 -1.246909632417081 0.9607342969783935 -1.2539709602777527 0.9806478506557151 C -1.2804150457596755 1.0552116441715422 -1.2991712900032706 1.1353139899773472 -1.3007680289588257 1.2147463145320474 C -1.3020123541394493 1.2766232121503283 -1.3012596679287927 1.3379301566264346 -1.2877678763724512 1.3987324097705405 C -1.2847223252310647 1.4124547930561584 -1.279035846171362 1.4273910460109858 -1.2785442072013953 1.4414658430715357 C -1.2783571233455673 1.4469043272525828 -1.281554952044023 1.4551055613976014 -1.2868455094553457 1.4575507038854 C -1.292057752694461 1.45996104007444 -1.2997412431454443 1.4585861912734717 -1.3053320048835606 1.458599243635506 C -1.3189064613994539 1.45862969914692 -1.3324809179153472 1.4587732751292997 -1.3460597252185853 1.4587993798533687 C -1.400940556786367 1.4588994479622999 -1.4555603411134583 1.4577943479767113 -1.5094100360805136 1.4459950126975114 C -1.540744406538034 1.4391294702673578 -1.5724311907704864 1.4342783423778638 -1.6035001631999717 1.4261684747670862 C -1.6515372062743237 1.4136251548519199 -1.6997091237563657 1.3961654452370862 -1.7450269247401944 1.3759125301468673 C -1.7655408870711036 1.3667410704239495 -1.7852673568925974 1.355777086314959 -1.805050386949574 1.3451568144062103 C -1.8655654881289203 1.312660783727618 -1.9222431948701197 1.2743085932828748 -1.9749834390642413 1.2302481698417038 C -1.9939441703130436 1.2144113039064952 -2.011769346064843 1.1964207982355917 -2.0295988726039877 1.17931350239569 C -2.075782480269439 1.135005084075864 -2.1142912990585967 1.0845620555998168 -2.149223770650298 1.0311387377925558 C -2.1567897898429704 1.0195656434552878 -2.1641817775418497 1.0078402715609505 -2.1723525561754546 0.9966848528087867 C -2.176498856515085 0.9910244784731531 -2.1821635816380636 0.98494207776507 -2.180941010394164 0.9774326188078802 Z" fill="#fec58e" transform="matrix(1,0,0,1,0,0)" fill-rule="evenodd"></path></g><g clip-path="url(#SvgjsClipPath2576317178f08-735c-4326-a818-d988663cbd01)"><path d=" M -0.6714570950394796 -0.12921189628829016 C -0.6716833359814112 -0.13244888207284927 -0.6827212834752641 -0.13555099344971844 -0.6857102743811674 -0.13683447571644558 C -0.7021170934585501 -0.1438740496403928 -0.7186065774954848 -0.1500217121586484 -0.7354354229453164 -0.1559300813729378 C -0.7606873926947539 -0.1647882844070272 -0.7882191750128866 -0.16940446977989992 -0.8146719620694991 -0.17270671737463167 C -0.8438396404292905 -0.17634832638226067 -0.8740689109012221 -0.17828877753805833 -0.9034454270535657 -0.17589149371105278 C -0.9251428035422709 -0.1741250740490487 -0.9463441902736645 -0.17008319260569454 -0.9678631844812313 -0.1673204426417227 C -0.9691901746214069 -0.16743791390003332 -0.9721226052918275 -0.16637197100054807 -0.9718441549017578 -0.16767720720399937 C -0.9715265474255845 -0.1691521241138993 -0.9688725671452336 -0.16833417609306983 -0.9675064199189547 -0.16897374183276098 C -0.9609019247294912 -0.17207150242228536 -0.954262623241269 -0.1765180070887094 -0.9471403843577699 -0.1793634220122332 C -0.930011334581144 -0.18620721050566275 -0.9126168867764834 -0.1921373336566764 -0.894756904725925 -0.1967187127307904 C -0.8779759179368862 -0.20102599220217965 -0.8604814020232943 -0.20413680515373855 -0.8431478652414615 -0.20499391026067154 C -0.8283856437804271 -0.20572049174725943 -0.8115959554166989 -0.20438915081973913 -0.7978170118955983 -0.21041064050499436 C -0.7795915637080735 -0.21838128292073689 -0.7662520497088012 -0.23948260154319928 -0.7681794485025644 -0.25953538041555585 C -0.769367213447705 -0.2719177211989637 -0.7768940755542741 -0.28473514071685524 -0.7856565612667772 -0.29328443784946123 C -0.808672226320968 -0.3157388513361681 -0.8409376652702836 -0.30710688924401025 -0.868878421598831 -0.30183373498206706 C -0.8871778331712179 -0.29838356061761084 -0.9055207526170532 -0.2960080307273295 -0.9236374311209572 -0.2915049658254226 C -1.006933254837873 -0.2707778149146162 -1.0859087467213653 -0.22929740836893442 -1.1539159037085223 -0.17745342636784944 C -1.192494335095197 -0.14804645470409206 -1.2295586924858688 -0.11409291026497942 -1.2582912921111764 -0.07479224817906122 C -1.2725879793263126 -0.05523980985136101 -1.2864060799335169 -0.034904229801590025 -1.2968958282219205 -0.012989313945643066 C -1.3044661982019379 0.002825798052841666 -1.3095696717574326 0.019163004532706807 -1.315417129948894 0.03560462990884816 C -1.3201899436661808 0.04902245808032735 -1.3300444770022382 0.06538576928426176 -1.346151091752827 0.06572948148450386 C -1.3597690561421687 0.06601663344926312 -1.368144321780981 0.05466978005392664 -1.3734870886404416 0.043610078623349424 C -1.3794476673028693 0.03126254413870033 -1.3823670456112551 0.017727244708910517 -1.387305189247646 0.004979437788536267 C -1.3935572706621775 -0.011166334048156035 -1.4022153374784043 -0.02674215274267472 -1.411099645236563 -0.041569636013881306 C -1.4630045382604755 -0.12817640890021875 -1.54433815688487 -0.1922461033402974 -1.6327548573066597 -0.2386820566717492 C -1.6832457444435 -0.26519575475118956 -1.7358859205286905 -0.28134587737522676 -1.7910452024865418 -0.2949029307417408 C -1.8127034218891434 -0.300228294451822 -1.8347053534919873 -0.30412224912545166 -1.8568769658012796 -0.30652823452714684 C -1.8660614778862317 -0.30752891561645945 -1.8752938486319772 -0.3094084557494293 -1.884569727251171 -0.3086035600906344 C -1.904239636837182 -0.30689370066411326 -1.9225695039209827 -0.29087845244776594 -1.929126140449653 -0.2724833235537925 C -1.9364224108269457 -0.25202157067102127 -1.9300006487059653 -0.2234325470280933 -1.9086643875668816 -0.2144307680116243 C -1.900911284518381 -0.2111589759283064 -1.8920226259728778 -0.2104628499531324 -1.8837561300176864 -0.20941866099037143 C -1.8698249089395163 -0.20766529369040182 -1.8558110229017943 -0.2064209685097783 -1.841910257335038 -0.20450662207804976 C -1.8206523103681618 -0.2015828929823189 -1.7997076200901134 -0.19563101589458098 -1.7791675530351352 -0.18957471991056707 C -1.7579444123670172 -0.1833139369213458 -1.7376088323172463 -0.17653105945074388 -1.7173428648649927 -0.1676162961811717 C -1.7081235464812818 -0.163561362375783 -1.6989694899077432 -0.15941941282349759 -1.689893747506412 -0.1550512223292806 C -1.6857604995288162 -0.15306291251268983 -1.6805308531403216 -0.15125733576458217 -1.677119835861969 -0.1481334704509888 C -1.6748095677818602 -0.1408894095218342 -1.6799217429120443 -0.14008451386303927 -1.6857692011035061 -0.14254705950021734 C -1.6949711163378376 -0.14641926023712282 -1.7012928103498866 -0.15402008572855413 -1.7098160027584235 -0.15871458527363386 C -1.7299688497397114 -0.16982214536500428 -1.7548597041395273 -0.17337238783839182 -1.7775012014820621 -0.1748908126217401 C -1.8222882064098207 -0.1778972066770229 -1.8672535936187173 -0.17703139999540024 -1.9114575930422675 -0.16864308199455336 C -1.9308055443647603 -0.1649710174755104 -1.9495791917577345 -0.15928453841580759 -1.968348488363364 -0.15344143101169072 C -1.9820273637755335 -0.14918201020109467 -1.9955191553318747 -0.1442960760128421 -2.008993543738837 -0.1394492989106929 C -2.0153761487737136 -0.13715643397996358 -2.023477314809801 -0.1350376005430277 -2.0286721548995374 -0.13055193879050003 C -2.0335972461738936 -0.13370625961550736 -2.0372997662043506 -0.13986262370845248 -2.041089301981704 -0.14428302365080753 C -2.050117185722242 -0.15481192902531454 -2.059045001353849 -0.16545395487078735 -2.0675246858889373 -0.1764353421291575 C -2.100960486634014 -0.2197343777849814 -2.1282268709241117 -0.26656190197746854 -2.1533178615417903 -0.3150862332344424 C -2.1589695343027344 -0.32601541104467446 -2.16456899761554 -0.3370054998777343 -2.169367916056896 -0.3483393009110363 C -2.1750630966912885 -0.36179628616861903 -2.178796072233159 -0.37550996787954716 -2.1691634290516886 -0.3883969999949562 C -2.1641034633696425 -0.3951624743161787 -2.1572727272382477 -0.3980949049865992 -2.149841582453265 -0.40144066045477933 C -2.1363715448336476 -0.40750565801348293 -2.1216615328207515 -0.4113865603250781 -2.1075258247373743 -0.41558942090019124 C -2.0490903999088603 -0.4329664655554727 -1.9897456605252752 -0.44347796778060034 -1.928778077462066 -0.4454053665743634 C -1.790958186739645 -0.449756153919201 -1.65298166767281 -0.39425315976110764 -1.547370655664222 -0.3077290518343221 C -1.5097493974934109 -0.2769080742834924 -1.475021412906917 -0.24231061331734371 -1.44506624203771 -0.2039540720852554 C -1.4368389031686222 -0.1934208159234035 -1.4288639099655347 -0.18270482669306848 -1.4210672990435858 -0.17185396305504347 C -1.4175040042081637 -0.16689841626927343 -1.414201756613432 -0.1610553088651565 -1.407692978745555 -0.1604200939128103 C -1.4059309098708956 -0.16886497214914004 -1.4071056224540017 -0.17858028029016237 -1.4071317271780708 -0.18718178687090636 C -1.4071839366262089 -0.20383225003959993 -1.407188287413554 -0.22048271320829343 -1.4072013397755883 -0.237133176376987 C -1.407240496861692 -0.29014316938648843 -1.407210041350278 -0.34315316239598986 -1.4071926382008988 -0.39616315540549135 C -1.4071795858388643 -0.4291682282034294 -1.4132750389089817 -0.47035713199700707 -1.3907336096753782 -0.4977105320340011 C -1.370128280810227 -0.522710156117438 -1.3310234041548266 -0.5227623655655761 -1.3077379902852557 -0.5014609107252511 C -1.2989624522107184 -0.4934380588613706 -1.2927147215835313 -0.48114708461220435 -1.2905436786984574 -0.4695087284647637 C -1.2886075783300048 -0.4591146974979467 -1.2889208350188333 -0.4483029909460252 -1.2888642747833503 -0.4377740855715182 C -1.2887772590364535 -0.42169792633234326 -1.2889469397429023 -0.4056217670931683 -1.2889556413175918 -0.3895499586413381 C -1.2889860968290057 -0.3387414640283245 -1.2889860968290057 -0.2879373202026558 -1.2889295365935227 -0.23712882558964216 C -1.2889121334441436 -0.22048271320829343 -1.2889556413175918 -0.20383660082694477 -1.2889382381682124 -0.18718613765825126 C -1.2889295365935227 -0.17773187675791907 -1.2895386468218002 -0.16788604499655158 -1.2883465310893145 -0.15849269511904718 C -1.2726010316883474 -0.17335498468901245 -1.2596878948488692 -0.1919502498008484 -1.2457392706213197 -0.20848759249857612 C -1.2238852657882004 -0.2343921803497393 -1.2009566164809065 -0.25972681505872863 -1.1763485632585047 -0.28305138601440305 C -1.0882668734622674 -0.3665473459491817 -0.9727795741808978 -0.42297270702438067 -0.851940806465378 -0.43864424304048577 C -0.8001707878491551 -0.44536185870091505 -0.7475088578272409 -0.44757640945943733 -0.6956039648033281 -0.4406978146672491 C -0.6658793856633975 -0.43676035212017106 -0.6370858750152624 -0.4290072490716704 -0.6081487883847472 -0.42141077436758395 C -0.5877218418007346 -0.4160462535713992 -0.5663246696388233 -0.41105590048687046 -0.5476771950788493 -0.40076193762898465 C -0.5401807884836942 -0.3966243388640441 -0.5314313551332257 -0.39175580782517083 -0.5271762851099744 -0.3839722492652563 C -0.5201889206341654 -0.37120268840815795 -0.5251227134832115 -0.3582286405458522 -0.5309440669506038 -0.3461900119626865 C -0.5365261271140307 -0.33464737313683235 -0.5423474805814235 -0.32319610084521977 -0.5483950749907476 -0.31188840453598676 C -0.5749348777942573 -0.2623024811668725 -0.6031105766394256 -0.21293409716500017 -0.6384259175174722 -0.16902595128089903 C -0.6457352402567993 -0.15993715651753326 -0.65309242165692 -0.15080050309337423 -0.6606714932116271 -0.1419379492719401 C -0.6641869293862557 -0.1378264552310685 -0.6673499517859529 -0.13271863088822922 -0.6714570950394796 -0.12921189628829016 Z" fill="#c8e1a1" transform="matrix(1,0,0,1,0,0)" fill-rule="evenodd"></path></g><g clip-path="url(#SvgjsClipPath2576317178f08-735c-4326-a818-d988663cbd01)"><path d=" M -2.0286721548995374 -0.13055193879050003 C -2.023477314809801 -0.1350376005430277 -2.0153761487737136 -0.13715643397996358 -2.008993543738837 -0.1394492989106929 C -1.9955191553318747 -0.1442960760128421 -1.9820273637755335 -0.14918201020109467 -1.968348488363364 -0.15344143101169072 C -1.9495791917577345 -0.15928453841580759 -1.9308055443647603 -0.1649710174755104 -1.9114575930422675 -0.16864308199455336 C -1.8672535936187173 -0.17703139999540024 -1.8222882064098207 -0.1778972066770229 -1.7775012014820621 -0.1748908126217401 C -1.7548597041395273 -0.17337238783839182 -1.7299688497397114 -0.16982214536500428 -1.7098160027584235 -0.15871458527363386 C -1.7012928103498866 -0.15402008572855413 -1.6949711163378376 -0.14641926023712282 -1.6857692011035061 -0.14254705950021734 C -1.6799217429120443 -0.14008451386303927 -1.6748095677818602 -0.1408894095218342 -1.677119835861969 -0.1481334704509888 C -1.669214455256399 -0.14494869411456773 -1.6617746088967267 -0.13955806859431386 -1.6543521656864337 -0.13537261116858013 C -1.6354915025465626 -0.12473058532310738 -1.6172704051463827 -0.11372744412801311 -1.5999368683645496 -0.10070553760491407 C -1.5942677924542263 -0.09644611679431803 -1.5888162559111447 -0.09187343929489367 -1.5830645150412694 -0.08772278816791867 C -1.5805802154673672 -0.0859302637818456 -1.5765818418974615 -0.08360694333970226 -1.575363621440907 -0.08075282684148882 C -1.5879678523789014 -0.0827889953188728 -1.601081125436242 -0.08063970637052303 -1.6137984768452025 -0.0802611878715222 C -1.6527293220068093 -0.07910822922514016 -1.6899024490811017 -0.07072426201163812 -1.7266143926968416 -0.05781982674684971 C -1.7472980357341994 -0.050545310306281344 -1.7669244374467619 -0.0406168135853619 -1.7871077399394637 -0.032124076688238856 C -1.797758467359626 -0.027642765723056184 -1.8087877132787895 -0.02446669096132459 -1.8196864355776077 -0.020703259908040117 C -1.8279398791707646 -0.01784914340982663 -1.8360279928448178 -0.014129220229990413 -1.8443945569089406 -0.011662323805467611 C -1.8518126493318885 -0.009478228558359003 -1.859496139782872 -0.008303515975252918 -1.8668837766944062 -0.006075912854696108 C -1.8710518309707607 -0.00728108094921609 -1.8749109793456316 -0.009965516740980895 -1.8787092166976747 -0.012006036005709708 C -1.8867538224982794 -0.016322017051788706 -1.8948636901090568 -0.020550982350970803 -1.9027386152032129 -0.025180220085878058 C -1.9353173108413568 -0.04433238597785316 -1.9654421624170124 -0.06780923449059689 -1.992786860879317 -0.09388785383555354 C -2.0011316710067155 -0.10184544388926148 -2.0093285543643895 -0.10992485598862495 -2.017290495205442 -0.11826096454133378 C -2.0210017168105887 -0.12214621764027378 -2.025865897062117 -0.1259705597163861 -2.0286721548995374 -0.13055193879050003 Z" fill="#7ecaa2" transform="matrix(1,0,0,1,0,0)" fill-rule="evenodd"></path></g><g clip-path="url(#SvgjsClipPath2576317178f08-735c-4326-a818-d988663cbd01)"><path d=" M -1.8668837766944062 -0.006075912854696108 C -1.859496139782872 -0.008303515975252918 -1.8518126493318885 -0.009478228558359003 -1.8443945569089406 -0.011662323805467611 C -1.8360279928448178 -0.014129220229990413 -1.8279398791707646 -0.01784914340982663 -1.8196864355776077 -0.020703259908040117 C -1.8087877132787895 -0.02446669096132459 -1.797758467359626 -0.027642765723056184 -1.7871077399394637 -0.032124076688238856 C -1.7669244374467619 -0.0406168135853619 -1.7472980357341994 -0.050545310306281344 -1.7266143926968416 -0.05781982674684971 C -1.6899024490811017 -0.07072426201163812 -1.6527293220068093 -0.07910822922514016 -1.6137984768452025 -0.0802611878715222 C -1.601081125436242 -0.08063970637052303 -1.5879678523789014 -0.0827889953188728 -1.575363621440907 -0.08075282684148882 C -1.566414051872576 -0.07546226943016632 -1.5585304252037302 -0.06714791481418159 -1.5509165473502642 -0.06013444561430337 C -1.532734607036188 -0.04338826512402344 -1.5164539607918055 -0.02528028819480921 -1.5001646129727335 -0.006737232531111359 C -1.4932338087324073 0.0011594464997689569 -1.4781670321572347 0.013572242794590572 -1.4860593604007701 0.025402033585203987 C -1.490314430424021 0.03178028783273601 -1.5025314412883253 0.03311597954760115 -1.509453543953962 0.03436030472822471 C -1.5297804224290432 0.038014966097888236 -1.5501203532661592 0.042196072736277235 -1.570586456936275 0.044989278211662986 C -1.6458376748525865 0.05524843477079 -1.721001877022001 0.04682531047118432 -1.7936861304048581 0.025432489096617883 C -1.8119246309544175 0.020063617513088383 -1.8297672098555964 0.012684682176243633 -1.8470137308905328 0.004714039760501221 C -1.85271326231227 0.0020774626295296805 -1.863137748790501 -0.0009071774890290207 -1.8668837766944062 -0.006075912854696108 Z" fill="#5bac9a" transform="matrix(1,0,0,1,0,0)" fill-rule="evenodd"></path></g><g clip-path="url(#SvgjsClipPath2576317178f08-735c-4326-a818-d988663cbd01)"><path d=" M -0.9678631844812313 -0.1673204426417227 C -0.9463441902736645 -0.17008319260569454 -0.9251428035422709 -0.1741250740490487 -0.9034454270535657 -0.17589149371105278 C -0.8740689109012221 -0.17828877753805833 -0.8438396404292905 -0.17634832638226067 -0.8146719620694991 -0.17270671737463167 C -0.7882191750128866 -0.16940446977989992 -0.7606873926947539 -0.1647882844070272 -0.7354354229453164 -0.1559300813729378 C -0.7186065774954848 -0.1500217121586484 -0.7021170934585501 -0.1438740496403928 -0.6857102743811674 -0.13683447571644558 C -0.6827212834752641 -0.13555099344971844 -0.6716833359814112 -0.13244888207284927 -0.6714570950394796 -0.12921189628829016 C -0.6902394440071433 -0.10925918552486485 -0.707803572518253 -0.08851898225202393 -0.7292877604270609 -0.07127246121708763 C -0.7990656878635667 -0.015256074152303345 -0.8807952281363409 0.026146018221171352 -0.9692293317075102 0.042352701080691335 C -1.0011945663300321 0.04820886084684284 -1.0335600733882793 0.049735987204880816 -1.0659864914693538 0.04976644271629471 C -1.1000705595288116 0.049792547440363655 -1.1325187315466108 0.04292700501020996 -1.1659719354410671 0.03740585586961098 C -1.1746474054066733 0.03597009604581447 -1.1831662470278652 0.03419932559646577 -1.1917068425857815 0.03213705239501263 C -1.1963317295333438 0.031018900047389386 -1.2017528105650117 0.02972671620597256 -1.2051116183952264 0.02606770404896419 C -1.211089600207033 0.019558926181087122 -1.2045460160403973 0.010748581807790925 -1.2006216058553538 0.005318799201433633 C -1.1891746843510862 -0.0104963127970511 -1.1773318411984381 -0.025180220085878058 -1.1635137405912337 -0.039002671480427076 C -1.1502960486376173 -0.052224714221388635 -1.136721592121724 -0.06502473058990088 -1.1231427848184856 -0.07781169459637854 C -1.119622997856512 -0.08112699455314476 -1.1167253734848501 -0.08502530001411929 -1.1129401884948416 -0.08821877792523014 C -1.0869442341094366 -0.11014674614321168 -1.0577722049623004 -0.1281285502394255 -1.0273384474851615 -0.14321272996397744 C -1.0142512791518898 -0.14969975389513035 -1.0008073462563416 -0.15565163098286827 -0.987111067694793 -0.16072899981429378 C -0.9807676197460196 -0.163078424980506 -0.9745982032910399 -0.16628930604099618 -0.9678631844812313 -0.1673204426417227 Z" fill="#6dbb9d" transform="matrix(1,0,0,1,0,0)" fill-rule="evenodd"></path></g><g clip-path="url(#SvgjsClipPath2576317178f08-735c-4326-a818-d988663cbd01)"><path d=" M -0.42520688210901536 0.7472020048811084 C -0.4252721439191882 0.7467234182731762 -0.4249501856556701 0.7459489781257952 -0.4253983167521884 0.7457662450573123 C -0.42586820178543117 0.7455704596267944 -0.4294532505575772 0.7463797060729339 -0.43026684779106183 0.746466721819831 C -0.43416080246469124 0.7468800466175903 -0.4380286524142518 0.7474717536964884 -0.4419008531511577 0.7480547592006969 C -0.46008714425257846 0.7508044568026339 -0.4782125243311721 0.754772374861126 -0.49604640165766156 0.7592319318895845 C -0.5515929036892033 0.7731326974563405 -0.6060038502237426 0.7903531137672081 -0.6581132302528625 0.8143433551866425 C -0.6759035997059037 0.8225358877569716 -0.6928542672013907 0.8322076880245458 -0.7100311756388098 0.841574933177981 C -0.8109563896770078 0.8966254454522112 -0.9046418935733958 0.9665164933596827 -0.982847296096852 1.0511523595788086 C -1.0169139610069304 1.0880209315389626 -1.0467516606178269 1.1290749609248505 -1.074135516166235 1.1710600588025333 C -1.1046432370282362 1.2178397243342274 -1.132623150442887 1.2663161969304082 -1.1548948308611104 1.3175815242146296 C -1.163448478781061 1.3372731877373645 -1.1717715349717357 1.3580525480963086 -1.1773318411984381 1.3788058037311846 C -1.1802077116333758 1.389534845323554 -1.1805035651728246 1.4012297617064777 -1.183788409618177 1.411710808420191 C -1.1863118662781829 1.4078342568959408 -1.186625122967011 1.4019563431930648 -1.1877432753146344 1.3974750322278826 C -1.1909846118865386 1.3844313717680596 -1.192581350842094 1.3707394439938554 -1.1942346500331322 1.357412982356618 C -1.2003388046779393 1.3082055774865045 -1.2009305117568374 1.258441271836252 -1.1998036578345244 1.2089728197254481 C -1.198842133831315 1.1667179730323851 -1.1917982091200232 1.125516016876773 -1.182239529323415 1.0844271811921269 C -1.1445617109171211 0.9225039285793054 -1.0466167862101368 0.775886745845623 -0.9158408201990078 0.6739042904826295 C -0.8932906893907147 0.6563140572474507 -0.8709711503116977 0.6389196094427901 -0.8467503171629869 0.6236309427130308 C -0.8347073377924763 0.6160301172215993 -0.8218768659125502 0.6099303133641371 -0.809316142848004 0.6032692579391906 C -0.7878406565138858 0.5918875982450956 -0.7659735993187318 0.5805886035105522 -0.743323400401507 0.5716868926030144 C -0.6635517144339094 0.5403351189961146 -0.5752307313337062 0.5216136810512785 -0.48933748757192186 0.5231408074093163 C -0.4706508559258442 0.5234714672475241 -0.45210344947480174 0.5250421014790104 -0.43350383357562094 0.5266954006700487 C -0.42323162465445896 0.5276090660124647 -0.4124634259759863 0.5284226632459493 -0.4047451292262443 0.5362062218058637 C -0.3992935926831631 0.5417056170097384 -0.3998896505494056 0.5482883582624777 -0.40017245172682014 0.555515016042253 C -0.40059012731192456 0.5661961989738292 -0.4010861170692357 0.5767990677331986 -0.40179964619378916 0.5874628475153957 C -0.40405335403841525 0.6211640462885079 -0.40906111027232317 0.654839140337551 -0.4140036046960589 0.688240134783869 C -0.4160441239607875 0.7020321306670044 -0.4181238003116199 0.7158241265501396 -0.4210301262579714 0.7294681956635501 C -0.42227010065125037 0.735293899918288 -0.4230271376492518 0.7416460494417508 -0.42520688210901536 0.7472020048811084 Z" fill="#9ed7a5" transform="matrix(1,0,0,1,0,0)" fill-rule="evenodd"></path></g><g clip-path="url(#SvgjsClipPath2576317178f08-735c-4326-a818-d988663cbd01)"><path d=" M -1.183788409618177 1.411710808420191 C -1.1805035651728246 1.4012297617064777 -1.1802077116333758 1.389534845323554 -1.1773318411984381 1.3788058037311846 C -1.1717715349717357 1.3580525480963086 -1.163448478781061 1.3372731877373645 -1.1548948308611104 1.3175815242146296 C -1.132623150442887 1.2663161969304082 -1.1046432370282362 1.2178397243342274 -1.074135516166235 1.1710600588025333 C -1.0467516606178269 1.1290749609248505 -1.0169139610069304 1.0880209315389626 -0.982847296096852 1.0511523595788086 C -0.9046418935733958 0.9665164933596827 -0.8109563896770078 0.8966254454522112 -0.7100311756388098 0.841574933177981 C -0.6928542672013907 0.8322076880245458 -0.6759035997059037 0.8225358877569716 -0.6581132302528625 0.8143433551866425 C -0.6060038502237426 0.7903531137672081 -0.5515929036892033 0.7731326974563405 -0.49604640165766156 0.7592319318895845 C -0.4782125243311721 0.754772374861126 -0.46008714425257846 0.7508044568026339 -0.4419008531511577 0.7480547592006969 C -0.4380286524142518 0.7474717536964884 -0.43416080246469124 0.7468800466175903 -0.43026684779106183 0.746466721819831 C -0.4294532505575772 0.7463797060729339 -0.42586820178543117 0.7455704596267944 -0.4253983167521884 0.7457662450573123 C -0.4249501856556701 0.7459489781257952 -0.4252721439191882 0.7467234182731762 -0.42520688210901536 0.7472020048811084 C -0.4370453744743188 0.7897744590503445 -0.4515465486946626 0.8311939545731987 -0.46780109021497585 0.8722523347464312 C -0.47626772238802983 0.8936408053336528 -0.4845037628318074 0.9152337629260817 -0.4947411654542102 0.9358521441532671 C -0.5197581926870267 0.9862342616064869 -0.5503920863820282 1.0339275924805964 -0.583079551703793 1.0795586501532535 C -0.6508517661743283 1.1741795733287814 -0.7360923918343871 1.2567053076856616 -0.8355165842386161 1.3177903620071816 C -0.914235379668763 1.3661537141323965 -0.9989930679335444 1.4029352703456537 -1.0883190829104055 1.4266775168864325 C -1.105287153555272 1.4311892833630289 -1.1222030147520008 1.4351093427607275 -1.1395539546832132 1.4379504068969067 C -1.1477508380408872 1.4392904493991168 -1.157213800515909 1.4417138379501915 -1.1654759456837556 1.4396907218348418 C -1.173398729438705 1.4377459198916993 -1.1800510832889617 1.4308542727374767 -1.1823744037311048 1.4230924681142865 C -1.1831618962405204 1.4204602417706598 -1.183570870250935 1.41763658078386 -1.18371009544597 1.4148955847566125 C -1.1837405509573837 1.414312579252404 -1.1834098911191764 1.410157577338084 -1.183788409618177 1.411710808420191 Z" fill="#53a496" transform="matrix(1,0,0,1,0,0)" fill-rule="evenodd"></path></g></g><g><path d=" M 0.3345 0.88425 Q 0.34500000000000003 0.9059999999999999 0.37425 0.9149999999999999 Q 0.4035 0.9239999999999999 0.468 0.9239999999999999 Q 0.47250000000000003 0.9239999999999999 0.47250000000000003 0.9329999999999999 Q 0.47250000000000003 0.942 0.468 0.942 Q 0.40650000000000003 0.942 0.372 0.9405 L 0.2415 0.939 L 0.132 0.9405 Q 0.10200000000000001 0.942 0.051000000000000004 0.942 Q 0.0465 0.942 0.0465 0.9329999999999999 Q 0.0465 0.9239999999999999 0.051000000000000004 0.9239999999999999 Q 0.099 0.9239999999999999 0.12075 0.9165 Q 0.14250000000000002 0.9089999999999999 0.15 0.88725 Q 0.1575 0.8654999999999999 0.1575 0.8205 L 0.1575 0.1259999999999999 Q 0.1575 0.08099999999999996 0.15 0.05999999999999994 Q 0.14250000000000002 0.038999999999999924 0.12 0.030749999999999944 Q 0.0975 0.022499999999999964 0.051000000000000004 0.022499999999999964 Q 0.0465 0.022499999999999964 0.0465 0.013499999999999956 Q 0.0465 0.0044999999999999485 0.051000000000000004 0.0044999999999999485 L 0.1305 0.005999999999999894 Q 0.1995 0.008999999999999897 0.24 0.008999999999999897 Q 0.276 0.008999999999999897 0.3255 0.0044999999999999485 Q 0.34500000000000003 0.0029999999999998916 0.375 0.0014999999999999458 Q 0.405 -1.1102230246251565e-16 0.444 -1.1102230246251565e-16 Q 0.597 -1.1102230246251565e-16 0.6855 0.06374999999999997 Q 0.774 0.12749999999999995 0.774 0.2609999999999999 Q 0.774 0.354 0.726 0.4185 Q 0.678 0.48299999999999993 0.6022500000000001 0.516 Q 0.5265 0.5489999999999999 0.447 0.5489999999999999 Q 0.40650000000000003 0.5489999999999999 0.3765 0.5414999999999999 Q 0.3735 0.5414999999999999 0.3735 0.5339999999999999 Q 0.3735 0.5294999999999999 0.37575000000000003 0.5249999999999999 Q 0.378 0.5205 0.381 0.522 Q 0.4035 0.5279999999999999 0.432 0.5279999999999999 Q 0.501 0.5279999999999999 0.54675 0.4634999999999999 Q 0.5925 0.3989999999999999 0.5925 0.28049999999999997 Q 0.5925 0.16199999999999992 0.54225 0.09749999999999992 Q 0.492 0.03299999999999992 0.396 0.03299999999999992 Q 0.354 0.03299999999999992 0.339 0.05249999999999988 Q 0.324 0.07199999999999995 0.324 0.1289999999999999 L 0.324 0.8145 Q 0.324 0.8624999999999999 0.3345 0.88425 M 1.6829677734375 0.9329999999999999 Q 1.6829677734375 0.942 1.6784677734375 0.942 L 1.4324677734375 0.942 Q 1.4099677734375 0.942 1.3522177734375 0.852 Q 1.2944677734375 0.762 1.2149677734375 0.6044999999999999 Q 1.1834677734375 0.609 1.1519677734375 0.609 L 1.1264677734375 0.609 L 1.1264677734375 0.8205 Q 1.1264677734375 0.867 1.1332177734375 0.8879999999999999 Q 1.1399677734375 0.9089999999999999 1.1587177734375 0.9165 Q 1.1774677734375 0.9239999999999999 1.2194677734375001 0.9239999999999999 Q 1.2224677734375 0.9239999999999999 1.2224677734375 0.9329999999999999 Q 1.2224677734375 0.942 1.2194677734375001 0.942 Q 1.1744677734375 0.942 1.1489677734375001 0.9405 L 1.0469677734375 0.939 L 0.9494677734375 0.9405 Q 0.9224677734375 0.942 0.8744677734375 0.942 Q 0.8714677734375 0.942 0.8714677734375 0.9329999999999999 Q 0.8714677734375 0.9239999999999999 0.8744677734375 0.9239999999999999 Q 0.9164677734375 0.9239999999999999 0.9359677734375 0.9165 Q 0.9554677734375 0.9089999999999999 0.9629677734375 0.88725 Q 0.9704677734375 0.8654999999999999 0.9704677734375 0.8205 L 0.9704677734375 0.36149999999999993 Q 0.9704677734375 0.3164999999999999 0.9637177734375 0.2955 Q 0.9569677734375 0.27449999999999997 0.9374677734375 0.26625 Q 0.9179677734375 0.2579999999999999 0.8774677734375 0.2579999999999999 Q 0.8729677734375 0.2579999999999999 0.8729677734375 0.2489999999999999 Q 0.8729677734375 0.23999999999999988 0.8774677734375 0.23999999999999988 L 0.9509677734374999 0.24149999999999994 Q 1.0109677734375 0.24449999999999994 1.0469677734375 0.24449999999999994 Q 1.0754677734375 0.24449999999999994 1.0994677734375 0.24299999999999988 Q 1.1234677734375 0.24149999999999994 1.1414677734375 0.23999999999999988 Q 1.1909677734375 0.23549999999999993 1.2344677734375 0.23549999999999993 Q 1.3514677734375 0.23549999999999993 1.4129677734375 0.2729999999999999 Q 1.4744677734375 0.3104999999999999 1.4744677734375 0.3809999999999999 Q 1.4744677734375 0.4394999999999999 1.4369677734375 0.48899999999999993 Q 1.3994677734375 0.5385 1.3334677734375 0.57 Q 1.4144677734375 0.7064999999999999 1.4729677734375 0.7829999999999999 Q 1.5314677734375 0.8594999999999999 1.5794677734375 0.8917499999999999 Q 1.6274677734375 0.9239999999999999 1.6784677734375 0.9239999999999999 Q 1.6829677734375 0.9239999999999999 1.6829677734375 0.9329999999999999 M 1.1624677734375 0.5805 Q 1.2479677734374999 0.5805 1.2809677734375 0.54075 Q 1.3139677734375 0.5009999999999999 1.3139677734375 0.4215 Q 1.3139677734375 0.26549999999999996 1.1999677734375 0.26549999999999996 Q 1.1684677734375 0.26549999999999996 1.1534677734375 0.2729999999999999 Q 1.1384677734375 0.28049999999999997 1.1324677734375 0.30074999999999996 Q 1.1264677734375 0.32099999999999995 1.1264677734375 0.36449999999999994 L 1.1264677734375 0.579 Q 1.1369677734375 0.5805 1.1624677734375 0.5805 M 1.835927490234375 0.5385 Q 1.835927490234375 0.705 1.909427490234375 0.8039999999999999 Q 1.982927490234375 0.9029999999999999 2.116427490234375 0.9029999999999999 Q 2.1539274902343752 0.9029999999999999 2.192927490234375 0.8925 Q 2.231927490234375 0.8819999999999999 2.261927490234375 0.861 L 2.263427490234375 0.861 Q 2.267927490234375 0.861 2.2716774902343753 0.86625 Q 2.275427490234375 0.8714999999999999 2.272427490234375 0.8759999999999999 Q 2.167427490234375 0.96 2.041427490234375 0.96 Q 1.924427490234375 0.96 1.842677490234375 0.90975 Q 1.760927490234375 0.8594999999999999 1.718927490234375 0.7785 Q 1.676927490234375 0.6975 1.676927490234375 0.603 Q 1.676927490234375 0.49949999999999994 1.727927490234375 0.4132499999999999 Q 1.778927490234375 0.32699999999999996 1.865927490234375 0.27674999999999994 Q 1.952927490234375 0.22649999999999992 2.054927490234375 0.22649999999999992 Q 2.165927490234375 0.22649999999999992 2.2244274902343752 0.2849999999999999 Q 2.282927490234375 0.3434999999999999 2.282927490234375 0.43799999999999994 Q 2.282927490234375 0.45749999999999996 2.279177490234375 0.4649999999999999 Q 2.275427490234375 0.4724999999999999 2.264927490234375 0.4724999999999999 L 1.838927490234375 0.4739999999999999 Q 1.835927490234375 0.5129999999999999 1.835927490234375 0.5385 M 1.899677490234375 0.3104999999999999 Q 1.858427490234375 0.35849999999999993 1.843427490234375 0.44399999999999995 L 2.122427490234375 0.4394999999999999 Q 2.119427490234375 0.26249999999999996 2.003927490234375 0.26249999999999996 Q 1.940927490234375 0.26249999999999996 1.899677490234375 0.3104999999999999 M 2.612181884765625 0.8835 Q 2.621931884765625 0.9059999999999999 2.649681884765625 0.9149999999999999 Q 2.677431884765625 0.9239999999999999 2.735931884765625 0.9239999999999999 Q 2.740431884765625 0.9239999999999999 2.740431884765625 0.9329999999999999 Q 2.740431884765625 0.942 2.735931884765625 0.942 Q 2.678931884765625 0.942 2.647431884765625 0.9405 L 2.528931884765625 0.939 L 2.431431884765625 0.9405 Q 2.404431884765625 0.942 2.356431884765625 0.942 Q 2.353431884765625 0.942 2.353431884765625 0.9329999999999999 Q 2.353431884765625 0.9239999999999999 2.356431884765625 0.9239999999999999 Q 2.398431884765625 0.9239999999999999 2.418681884765625 0.91575 Q 2.438931884765625 0.9075 2.446431884765625 0.8865 Q 2.453931884765625 0.8654999999999999 2.453931884765625 0.8205 L 2.453931884765625 0.36149999999999993 Q 2.453931884765625 0.31799999999999995 2.445681884765625 0.2962499999999999 Q 2.437431884765625 0.27449999999999997 2.417181884765625 0.26625 Q 2.396931884765625 0.2579999999999999 2.356431884765625 0.2579999999999999 Q 2.353431884765625 0.2579999999999999 2.353431884765625 0.2489999999999999 Q 2.353431884765625 0.23999999999999988 2.356431884765625 0.23999999999999988 L 2.429931884765625 0.24149999999999994 Q 2.4929318847656248 0.24449999999999994 2.527431884765625 0.24449999999999994 Q 2.566431884765625 0.24449999999999994 2.608431884765625 0.23999999999999988 Q 2.624931884765625 0.23849999999999993 2.655681884765625 0.237 Q 2.686431884765625 0.23549999999999993 2.708931884765625 0.23549999999999993 Q 2.837931884765625 0.23549999999999993 2.905431884765625 0.27749999999999997 Q 2.972931884765625 0.3194999999999999 2.972931884765625 0.40349999999999997 Q 2.972931884765625 0.4784999999999999 2.936181884765625 0.5309999999999999 Q 2.899431884765625 0.5834999999999999 2.840181884765625 0.60975 Q 2.780931884765625 0.6359999999999999 2.714931884765625 0.6359999999999999 Q 2.686431884765625 0.6359999999999999 2.6804318847656248 0.633 Q 2.675931884765625 0.6299999999999999 2.675931884765625 0.6224999999999999 Q 2.675931884765625 0.6134999999999999 2.686431884765625 0.6134999999999999 L 2.707431884765625 0.615 Q 2.752431884765625 0.615 2.778681884765625 0.5707499999999999 Q 2.804931884765625 0.5265 2.804931884765625 0.43799999999999994 Q 2.804931884765625 0.345 2.771931884765625 0.30374999999999996 Q 2.738931884765625 0.26249999999999996 2.674431884765625 0.26249999999999996 Q 2.636931884765625 0.26249999999999996 2.619681884765625 0.28274999999999995 Q 2.602431884765625 0.30299999999999994 2.602431884765625 0.36449999999999994 L 2.602431884765625 0.8145 Q 2.602431884765625 0.861 2.612181884765625 0.8835 M 3.5594443359375 0.855 Q 3.5654443359375 0.855 3.5676943359375 0.861 Q 3.5699443359375 0.867 3.5654443359375 0.8699999999999999 Q 3.5039443359374998 0.9195 3.4551943359375 0.93975 Q 3.4064443359375 0.96 3.3464443359375 0.96 Q 3.2564443359375 0.96 3.1949443359375 0.9119999999999999 Q 3.1334443359375 0.864 3.1334443359375 0.7529999999999999 L 3.1334443359375 0.36 Q 3.1334443359375 0.3194999999999999 3.1161943359375 0.30599999999999994 Q 3.0989443359375 0.2925 3.0524443359375 0.2925 Q 3.0479443359375 0.2925 3.0479443359375 0.2789999999999999 Q 3.0479443359375 0.26549999999999996 3.0524443359375 0.26549999999999996 Q 3.1289443359375 0.26549999999999996 3.1859443359375 0.23249999999999993 Q 3.2429443359375 0.1994999999999999 3.2594443359375 0.14549999999999996 Q 3.2624443359375 0.1409999999999999 3.2684443359375 0.1409999999999999 Q 3.2744443359375 0.1409999999999999 3.2789443359375 0.14324999999999988 Q 3.2834443359375 0.14549999999999996 3.2834443359375 0.14849999999999997 L 3.2834443359375 0.2579999999999999 Q 3.3869443359374998 0.25649999999999995 3.5249443359375 0.24449999999999994 Q 3.5294443359375 0.24449999999999994 3.5324443359375 0.2549999999999999 Q 3.5354443359375 0.26549999999999996 3.5354443359375 0.28049999999999997 Q 3.5354443359375 0.2955 3.5301943359375 0.30974999999999997 Q 3.5249443359375 0.32399999999999995 3.5204443359375 0.3224999999999999 Q 3.4499443359375 0.3044999999999999 3.2834443359375 0.2985 L 3.2834443359375 0.7184999999999999 Q 3.2834443359375 0.8969999999999999 3.4154443359375 0.8969999999999999 Q 3.4964443359375 0.8969999999999999 3.5564443359375 0.8564999999999999 L 3.5594443359375 0.855 M 4.31095166015625 0.8534999999999999 Q 4.31545166015625 0.8534999999999999 4.31770166015625 0.861 Q 4.31995166015625 0.8684999999999999 4.31395166015625 0.8699999999999999 L 4.14895166015625 0.9494999999999999 Q 4.14295166015625 0.9524999999999999 4.13545166015625 0.9524999999999999 Q 4.10695166015625 0.9524999999999999 4.07920166015625 0.9285 Q 4.05145166015625 0.9045 4.03645166015625 0.852 L 3.94645166015625 0.9045 Q 3.90145166015625 0.9315 3.86620166015625 0.942 Q 3.83095166015625 0.9524999999999999 3.79345166015625 0.9524999999999999 Q 3.73495166015625 0.9524999999999999 3.69745166015625 0.9209999999999999 Q 3.65995166015625 0.8895 3.65995166015625 0.84 Q 3.65995166015625 0.7935 3.69070166015625 0.75825 Q 3.72145166015625 0.723 3.77695166015625 0.7034999999999999 L 4.02595166015625 0.615 L 4.02595166015625 0.4364999999999999 Q 4.02595166015625 0.345 4.00720166015625 0.30299999999999994 Q 3.98845166015625 0.2609999999999999 3.94645166015625 0.2609999999999999 Q 3.89845166015625 0.2609999999999999 3.87145166015625 0.3044999999999999 Q 3.84445166015625 0.348 3.82945166015625 0.4155 Q 3.81295166015625 0.49949999999999994 3.74245166015625 0.49949999999999994 Q 3.70495166015625 0.49949999999999994 3.68320166015625 0.48074999999999996 Q 3.66145166015625 0.46199999999999997 3.66145166015625 0.4275 Q 3.66145166015625 0.38249999999999995 3.71770166015625 0.33524999999999994 Q 3.77395166015625 0.2879999999999999 3.85495166015625 0.25725 Q 3.93595166015625 0.22649999999999992 4.00345166015625 0.22649999999999992 Q 4.08295166015625 0.22649999999999992 4.12945166015625 0.26774999999999993 Q 4.17595166015625 0.30899999999999994 4.17595166015625 0.39149999999999996 L 4.17595166015625 0.711 Q 4.17595166015625 0.7785 4.18795166015625 0.8114999999999999 Q 4.19995166015625 0.8444999999999999 4.21870166015625 0.8534999999999999 Q 4.23745166015625 0.8624999999999999 4.26745166015625 0.8624999999999999 Q 4.28245166015625 0.8624999999999999 4.30795166015625 0.855 L 4.31095166015625 0.8534999999999999 M 4.03045166015625 0.822 Q 4.02595166015625 0.7949999999999999 4.02595166015625 0.762 L 4.02595166015625 0.6465 L 3.89695166015625 0.6944999999999999 Q 3.82495166015625 0.7214999999999999 3.82495166015625 0.7905 Q 3.82495166015625 0.831 3.84445166015625 0.85425 Q 3.86395166015625 0.8775 3.89695166015625 0.8775 Q 3.92095166015625 0.8775 3.96295166015625 0.8564999999999999 L 4.03045166015625 0.822 M 4.547228759765625 0.42374999999999996 Q 4.570478759765625 0.45449999999999996 4.604228759765625 0.47624999999999995 Q 4.637978759765625 0.49799999999999994 4.6964787597656255 0.5279999999999999 Q 4.763978759765625 0.564 4.802228759765625 0.5887499999999999 Q 4.840478759765625 0.6134999999999999 4.868228759765625 0.6525 Q 4.895978759765625 0.6915 4.895978759765625 0.7454999999999999 Q 4.895978759765625 0.8054999999999999 4.860728759765625 0.85425 Q 4.825478759765625 0.9029999999999999 4.763978759765625 0.9315 Q 4.702478759765625 0.96 4.625978759765625 0.96 Q 4.556978759765625 0.96 4.491728759765625 0.94275 Q 4.426478759765625 0.9255 4.400978759765625 0.9045 Q 4.388978759765625 0.8969999999999999 4.388978759765625 0.873 L 4.381478759765625 0.7034999999999999 Q 4.381478759765625 0.6975 4.388978759765625 0.696 Q 4.396478759765625 0.6944999999999999 4.399478759765625 0.7004999999999999 Q 4.456478759765625 0.7994999999999999 4.514978759765625 0.8624999999999999 Q 4.573478759765625 0.9255 4.648478759765625 0.9255 Q 4.693478759765625 0.9255 4.723478759765625 0.8985 Q 4.753478759765625 0.8714999999999999 4.753478759765625 0.8174999999999999 Q 4.753478759765625 0.7695 4.728728759765625 0.7334999999999999 Q 4.703978759765625 0.6975 4.667978759765625 0.67275 Q 4.631978759765625 0.6479999999999999 4.571978759765625 0.615 Q 4.483478759765625 0.567 4.436978759765625 0.5242499999999999 Q 4.390478759765625 0.48149999999999993 4.390478759765625 0.4125 Q 4.390478759765625 0.3254999999999999 4.466978759765625 0.27374999999999994 Q 4.543478759765625 0.22199999999999998 4.651478759765625 0.22199999999999998 Q 4.699478759765625 0.22199999999999998 4.751978759765625 0.23249999999999993 Q 4.804478759765625 0.24299999999999988 4.835978759765625 0.25649999999999995 Q 4.849478759765625 0.2609999999999999 4.853978759765625 0.26774999999999993 Q 4.858478759765625 0.27449999999999997 4.858478759765625 0.2865 L 4.858478759765625 0.42899999999999994 Q 4.858478759765625 0.4334999999999999 4.850978759765625 0.43574999999999997 Q 4.843478759765625 0.43799999999999994 4.840478759765625 0.4334999999999999 Q 4.811978759765625 0.37349999999999994 4.760978759765625 0.31499999999999995 Q 4.709978759765625 0.25649999999999995 4.625978759765625 0.25649999999999995 Q 4.574978759765625 0.25649999999999995 4.549478759765625 0.28274999999999995 Q 4.523978759765625 0.30899999999999994 4.523978759765625 0.351 Q 4.523978759765625 0.3929999999999999 4.547228759765625 0.42374999999999996 M 5.483974365234375 0.855 Q 5.489974365234375 0.855 5.4922243652343745 0.861 Q 5.494474365234375 0.867 5.489974365234375 0.8699999999999999 Q 5.428474365234375 0.9195 5.379724365234375 0.93975 Q 5.330974365234375 0.96 5.270974365234375 0.96 Q 5.180974365234375 0.96 5.119474365234375 0.9119999999999999 Q 5.057974365234375 0.864 5.057974365234375 0.7529999999999999 L 5.057974365234375 0.36 Q 5.057974365234375 0.3194999999999999 5.040724365234375 0.30599999999999994 Q 5.023474365234375 0.2925 4.976974365234375 0.2925 Q 4.972474365234375 0.2925 4.972474365234375 0.2789999999999999 Q 4.972474365234375 0.26549999999999996 4.976974365234375 0.26549999999999996 Q 5.053474365234375 0.26549999999999996 5.110474365234375 0.23249999999999993 Q 5.167474365234375 0.1994999999999999 5.183974365234375 0.14549999999999996 Q 5.186974365234375 0.1409999999999999 5.192974365234375 0.1409999999999999 Q 5.198974365234375 0.1409999999999999 5.203474365234375 0.14324999999999988 Q 5.207974365234375 0.14549999999999996 5.207974365234375 0.14849999999999997 L 5.207974365234375 0.2579999999999999 Q 5.311474365234375 0.25649999999999995 5.449474365234375 0.24449999999999994 Q 5.453974365234375 0.24449999999999994 5.456974365234375 0.2549999999999999 Q 5.459974365234375 0.26549999999999996 5.459974365234375 0.28049999999999997 Q 5.459974365234375 0.2955 5.454724365234375 0.30974999999999997 Q 5.449474365234375 0.32399999999999995 5.444974365234375 0.3224999999999999 Q 5.374474365234375 0.3044999999999999 5.207974365234375 0.2985 L 5.207974365234375 0.7184999999999999 Q 5.207974365234375 0.8969999999999999 5.339974365234375 0.8969999999999999 Q 5.420974365234375 0.8969999999999999 5.480974365234375 0.8564999999999999 L 5.483974365234375 0.855 M 5.822981689453125 0.88725 Q 5.830481689453125 0.9089999999999999 5.849981689453125 0.9165 Q 5.869481689453125 0.9239999999999999 5.912981689453125 0.9239999999999999 Q 5.915981689453125 0.9239999999999999 5.915981689453125 0.9329999999999999 Q 5.915981689453125 0.942 5.912981689453125 0.942 Q 5.866481689453125 0.942 5.840981689453125 0.9405 L 5.738981689453125 0.939 L 5.641481689453125 0.9405 Q 5.614481689453125 0.942 5.566481689453125 0.942 Q 5.563481689453125 0.942 5.563481689453125 0.9329999999999999 Q 5.563481689453125 0.9239999999999999 5.566481689453125 0.9239999999999999 Q 5.609981689453125 0.9239999999999999 5.630231689453125 0.9165 Q 5.650481689453125 0.9089999999999999 5.657981689453125 0.88725 Q 5.665481689453125 0.8654999999999999 5.665481689453125 0.8205 L 5.665481689453125 0.36149999999999993 Q 5.665481689453125 0.3164999999999999 5.657981689453125 0.2955 Q 5.650481689453125 0.27449999999999997 5.630231689453125 0.26625 Q 5.609981689453125 0.2579999999999999 5.566481689453125 0.2579999999999999 Q 5.563481689453125 0.2579999999999999 5.563481689453125 0.2489999999999999 Q 5.563481689453125 0.23999999999999988 5.566481689453125 0.23999999999999988 L 5.641481689453125 0.24149999999999994 Q 5.701481689453125 0.24449999999999994 5.738981689453125 0.24449999999999994 Q 5.779481689453125 0.24449999999999994 5.842481689453125 0.24149999999999994 L 5.912981689453125 0.23999999999999988 Q 5.915981689453125 0.23999999999999988 5.915981689453125 0.2489999999999999 Q 5.915981689453125 0.2579999999999999 5.912981689453125 0.2579999999999999 Q 5.870981689453125 0.2579999999999999 5.850731689453125 0.2669999999999999 Q 5.830481689453125 0.2759999999999999 5.822981689453125 0.29774999999999996 Q 5.815481689453125 0.3194999999999999 5.815481689453125 0.36449999999999994 L 5.815481689453125 0.8205 Q 5.815481689453125 0.8654999999999999 5.822981689453125 0.88725 M 6.549699462890625 0.23399999999999999 Q 6.614949462890625 0.24599999999999989 6.656949462890625 0.26549999999999996 Q 6.667449462890625 0.2699999999999999 6.670449462890625 0.2752499999999999 Q 6.673449462890625 0.28049999999999997 6.673449462890625 0.2909999999999999 L 6.680949462890625 0.44549999999999995 Q 6.680949462890625 0.44999999999999996 6.673449462890625 0.45149999999999996 Q 6.665949462890625 0.45299999999999996 6.662949462890625 0.44699999999999995 Q 6.605949462890625 0.3494999999999999 6.546699462890625 0.3022499999999999 Q 6.487449462890625 0.2549999999999999 6.410949462890625 0.2549999999999999 Q 6.304449462890625 0.2549999999999999 6.247449462890625 0.3397499999999999 Q 6.190449462890625 0.4245 6.190449462890625 0.5654999999999999 Q 6.190449462890625 0.6584999999999999 6.216699462890625 0.7409999999999999 Q 6.242949462890625 0.8234999999999999 6.299949462890625 0.8759999999999999 Q 6.356949462890625 0.9285 6.443949462890625 0.9285 Q 6.520449462890625 0.9285 6.573699462890625 0.8819999999999999 Q 6.626949462890625 0.8354999999999999 6.677949462890625 0.732 Q 6.679449462890625 0.726 6.686949462890625 0.7274999999999999 Q 6.694449462890625 0.729 6.694449462890625 0.7334999999999999 L 6.6824494628906255 0.8925 Q 6.680949462890625 0.9045 6.677949462890625 0.9089999999999999 Q 6.674949462890625 0.9135 6.661449462890625 0.9195 Q 6.545949462890625 0.96 6.421449462890625 0.96 Q 6.277449462890625 0.96 6.185949462890625 0.9029999999999999 Q 6.094449462890625 0.846 6.053199462890625 0.7605 Q 6.011949462890625 0.6749999999999999 6.011949462890625 0.588 Q 6.011949462890625 0.48599999999999993 6.066699462890625 0.4019999999999999 Q 6.121449462890625 0.31799999999999995 6.216699462890625 0.2699999999999999 Q 6.311949462890625 0.22199999999999998 6.428949462890625 0.22199999999999998 Q 6.484449462890625 0.22199999999999998 6.549699462890625 0.23399999999999999" fill="#53a496" fill-rule="nonzero"></path></g><g></g></g><defs><clipPath id="SvgjsClipPath25765"><path d=" M -2.2962938039391183 -0.5169779349762827 h 1.8962938039391184 v 1.9759558699525654 h -1.8962938039391184 Z"></path></clipPath><clipPath id="SvgjsClipPath2576317178f08-735c-4326-a818-d988663cbd01"><path d=" M -2.2962938039391183 -0.5169779349762827 L -0.3999999999999999 -0.5169779349762827 L -0.3999999999999999 1.4589779349762826 L -2.2962938039391183 1.4589779349762826 Z"></path></clipPath></defs></svg>